<svg width="116" height="62" viewBox="0 0 116 62" fill="none" xmlns="http://www.w3.org/2000/svg">
<rect x="1.5" y="1.5" width="113" height="59" stroke="#FFC107" stroke-width="3"/>
<rect x="1.5" y="17" width="113" height="28" stroke="#FFC107" stroke-width="3"/>
<line x1="102.08" y1="46.5" x2="102.08" y2="62" stroke="#FFC107" stroke-width="3"/>
<line x1="102.08" x2="102.08" y2="15.5" stroke="#FFC107" stroke-width="3"/>
<line x1="84.6799" x2="84.6799" y2="15.5" stroke="#FFC107" stroke-width="3"/>
<line x1="67.28" x2="67.28" y2="15.5" stroke="#FFC107" stroke-width="3"/>
<line x1="49.88" x2="49.88" y2="15.5" stroke="#FFC107" stroke-width="3"/>
<line x1="32.48" x2="32.48" y2="15.5" stroke="#FFC107" stroke-width="3"/>
<line x1="15.08" x2="15.08" y2="15.5" stroke="#FFC107" stroke-width="3"/>
<line x1="84.6799" y1="46.5" x2="84.6799" y2="62" stroke="#FFC107" stroke-width="3"/>
<line x1="67.28" y1="46.5" x2="67.28" y2="62" stroke="#FFC107" stroke-width="3"/>
<line x1="49.88" y1="46.5" x2="49.88" y2="62" stroke="#FFC107" stroke-width="3"/>
<line x1="32.48" y1="46.5" x2="32.48" y2="62" stroke="#FFC107" stroke-width="3"/>
<line x1="14.5" y1="46.5" x2="14.5" y2="62" stroke="#FFC107" stroke-width="3"/>
<path d="M77.2344 25.5469H79.1094V33.7266C79.1406 37.3828 80.9609 39.2188 84.5703 39.2344C87.3203 39.2344 88.9844 38.1094 89.5625 35.8594C89.7344 35.1719 89.8203 34.3906 89.8203 33.5156V25.5469H91.6953V24.9375H87.125V25.5469H89V33.6562C89 36.6875 87.875 38.3203 85.625 38.5547C85.4375 38.5703 85.25 38.5781 85.0625 38.5781C83.1562 38.5781 81.9531 37.7734 81.4531 36.1641C81.2344 35.4609 81.125 34.6016 81.125 33.5859V25.5469H82.9766V24.9375H77.2344V25.5469ZM106.18 39C106.18 38.6562 106.055 38.4609 105.805 38.4141C105.727 38.3984 105.648 38.3906 105.57 38.3906H104.773L99.4062 24.9375H98.5391L93.2891 38.3906H91.8125V39H95.9844C95.9844 38.6562 95.8594 38.4609 95.6094 38.4141C95.5312 38.3984 95.4531 38.3906 95.375 38.3906H94.2266L95.9844 33.8438H100.883L102.641 38.3906H101.117V39H106.18ZM100.625 33.1641H96.2422L98.4219 27.4922L100.625 33.1641Z" fill="#FFC107"/>
<path d="M4.9375 24.9375V25.5469H6.8125V38.3906H4.9375V39H11.4062C13.5156 39 15.25 38.3438 16.6094 37.0312C17.9531 35.7344 18.625 34.0469 18.625 31.9688C18.625 29.2812 17.6406 27.3125 15.6719 26.0625C14.4688 25.3125 13.0703 24.9375 11.4766 24.9375H4.9375ZM11.4062 25.5469C13.875 25.5469 15.4141 26.6719 16.0234 28.9219C16.2578 29.75 16.375 30.7344 16.375 31.875C16.375 35.7656 15.0469 37.9141 12.3906 38.3203C12.0938 38.3672 11.7891 38.3906 11.4766 38.3906H8.82812V25.5469H11.4062ZM25.8672 38.4141H24.1797V33.75C24.1797 32.3281 24.6172 31.1875 25.4922 30.3281C25.8359 30 26.125 29.8281 26.3594 29.8125C26.625 29.8125 26.8672 30.0078 27.0859 30.3984C27.3359 30.8359 27.5703 31.0859 27.7891 31.1484C27.8828 31.1797 27.9766 31.1953 28.0703 31.1953C28.5391 31.1953 28.8359 30.9688 28.9609 30.5156C28.9922 30.4219 29.0078 30.3281 29.0078 30.2344C29.0078 29.5312 28.6484 29.1016 27.9297 28.9453C27.7734 28.9141 27.625 28.8984 27.4844 28.8984C26.5469 28.8984 25.7109 29.2969 24.9766 30.0938C24.6328 30.4688 24.3594 30.8906 24.1562 31.3594L24.0625 29.0391H20.6641V29.625H22.4219V37.0078C22.4219 37.7266 22.2188 38.1562 21.8125 38.2969C21.5781 38.375 21.1953 38.4141 20.6641 38.4141V39H26.4531C26.4531 38.6562 26.3359 38.4688 26.1016 38.4375C26.0391 38.4219 25.9609 38.4141 25.8672 38.4141ZM34.9609 29.3906C36.0547 29.3906 36.7812 29.8516 37.1406 30.7734C37.2656 31.0703 37.3281 31.3906 37.3281 31.7344C37.3281 32.5156 36.9531 32.9922 36.2031 33.1641C35.8125 33.2422 35.2578 33.2734 34.5391 33.2578L32.0547 33.1875C32.1328 31.3906 32.7188 30.2188 33.8125 29.6719C34.1719 29.4844 34.5547 29.3906 34.9609 29.3906ZM39.0391 36.75L38.4531 36.5391C37.9062 37.7266 37.0234 38.3984 35.8047 38.5547C35.6484 38.5703 35.5 38.5781 35.3594 38.5781C33.7188 38.5781 32.6875 37.6016 32.2656 35.6484C32.1406 35.1016 32.0703 34.5 32.0547 33.8438L34.8672 33.8906C36.7734 33.9219 38 33.7422 38.5469 33.3516C38.9688 33.0391 39.1797 32.5938 39.1797 32.0156C39.1797 30.9531 38.6406 30.1094 37.5625 29.4844C36.7969 29.0312 35.9141 28.8047 34.9141 28.8047C32.9609 28.8047 31.5625 29.6172 30.7188 31.2422C30.2812 32.0859 30.0625 33.0391 30.0625 34.1016C30.0625 36.0391 30.7578 37.4766 32.1484 38.4141C32.9766 38.9609 33.9219 39.2344 34.9844 39.2344C36.6719 39.2344 37.9141 38.625 38.7109 37.4062C38.8359 37.1875 38.9453 36.9688 39.0391 36.75ZM49.1641 39.2344C50.3672 39.2344 51.0312 38.5078 51.1562 37.0547C51.1719 36.9609 51.1797 36.875 51.1797 36.7969L50.5703 36.7734C50.4609 37.9141 50.1562 38.4922 49.6562 38.5078C49.25 38.4766 49.0391 38.0703 49.0234 37.2891V32.3438C49.0234 30.1094 47.9062 28.9297 45.6719 28.8047C45.5312 28.8047 45.3906 28.8047 45.25 28.8047C43.5 28.8047 42.3281 29.2109 41.7344 30.0234C41.5469 30.2891 41.4531 30.5547 41.4531 30.8203C41.4531 31.3047 41.6797 31.5859 42.1328 31.6641C42.2109 31.6797 42.2891 31.6875 42.3672 31.6875C42.7266 31.6875 42.9922 31.4609 43.1641 31.0078C43.3828 30.4297 43.5312 30.0859 43.6094 29.9766C43.9062 29.5859 44.3672 29.3906 44.9922 29.3906C46.4609 29.4844 47.2188 30.2891 47.2656 31.8047V33.2812C43.5938 33.2812 41.4922 34.0469 40.9609 35.5781C40.8672 35.875 40.8203 36.1953 40.8203 36.5391C40.8203 37.7266 41.3438 38.5391 42.3906 38.9766C42.8125 39.1484 43.2578 39.2344 43.7266 39.2344C44.8672 39.2344 45.8281 38.8438 46.6094 38.0625C46.8906 37.7656 47.1016 37.4531 47.2422 37.125C47.4297 38.5156 48.0703 39.2188 49.1641 39.2344ZM44.5 38.2969C43.5469 38.2969 42.9609 37.8203 42.7422 36.8672C42.6953 36.6484 42.6719 36.4062 42.6719 36.1406C42.6719 35.0938 43.2734 34.4297 44.4766 34.1484C45.1172 34.0078 46.0469 33.9297 47.2656 33.9141V35.7891C47.0312 36.8672 46.4609 37.625 45.5547 38.0625C45.1953 38.2188 44.8438 38.2969 44.5 38.2969ZM56.5703 38.4141H55.5156V33.3516C55.5625 31.9766 56.0391 30.9531 56.9453 30.2812C57.3672 29.9688 57.7891 29.8125 58.2109 29.8125C58.9922 29.8125 59.5312 30.2422 59.8281 31.1016C59.9531 31.4766 60.0156 31.8984 60.0156 32.3672V37.0078C60.0156 37.7266 59.8438 38.1562 59.5 38.2969C59.2812 38.375 58.9062 38.4141 58.375 38.4141V39H63.4141C63.4141 38.6562 63.2969 38.4688 63.0625 38.4375C63 38.4219 62.9219 38.4141 62.8281 38.4141H61.7734V32.6016V32.4141C62.0234 31.2734 62.5781 30.4766 63.4375 30.0234C63.7656 29.8672 64.0781 29.7891 64.375 29.7891C65.1719 29.7891 65.7344 30.2031 66.0625 31.0312C66.2188 31.4219 66.2969 31.8672 66.2969 32.3672V37.0078C66.2969 37.7266 66.125 38.1562 65.7812 38.2969C65.5625 38.375 65.1875 38.4141 64.6562 38.4141V39H69.8359C69.8359 38.6562 69.7188 38.4688 69.4844 38.4375C69.4219 38.4219 69.3438 38.4141 69.25 38.4141H68.0547V32.6016C68.0547 30.9922 67.5312 29.8672 66.4844 29.2266C66.0156 28.9453 65.5078 28.8047 64.9609 28.8047C63.7734 28.8047 62.8203 29.3594 62.1016 30.4688C61.9141 30.75 61.7578 31.0469 61.6328 31.3594C61.3516 30.125 60.7344 29.3281 59.7812 28.9688C59.5 28.8594 59.2109 28.8047 58.9141 28.8047C57.7891 28.8047 56.8594 29.2812 56.125 30.2344C55.8594 30.5781 55.6484 30.9609 55.4922 31.3828L55.3984 29.0391H52V29.625H53.7578V37.0078C53.7578 37.7266 53.5547 38.1562 53.1484 38.2969C52.9141 38.375 52.5312 38.4141 52 38.4141V39H57.1562C57.1562 38.6719 57.0391 38.4844 56.8047 38.4375C56.7266 38.4219 56.6484 38.4141 56.5703 38.4141Z" fill="#FFC107"/>
</svg>
