<svg width="300" height="150" viewBox="0 0 300 150" fill="none" xmlns="http://www.w3.org/2000/svg">
<rect x="1.5" y="1.5" width="297" height="147" stroke="black" stroke-width="3"/>
<rect x="1.5" y="26.5" width="297" height="97" stroke="black" stroke-width="3"/>
<line x1="151.5" x2="151.5" y2="25" stroke="black" stroke-width="3"/>
<line x1="271.5" x2="271.5" y2="25" stroke="black" stroke-width="3"/>
<path d="M240 0V25" stroke="black" stroke-width="3"/>
<line x1="181.5" x2="181.5" y2="25" stroke="black" stroke-width="3"/>
<line x1="211.5" x2="211.5" y2="25" stroke="black" stroke-width="3"/>
<line x1="271.5" y1="125" x2="271.5" y2="150" stroke="black" stroke-width="3"/>
<path d="M240 125V150" stroke="black" stroke-width="3"/>
<line x1="181.5" y1="125" x2="181.5" y2="150" stroke="black" stroke-width="3"/>
<line x1="211.5" y1="125" x2="211.5" y2="150" stroke="black" stroke-width="3"/>
<line x1="121.5" x2="121.5" y2="25" stroke="black" stroke-width="3"/>
<path d="M90 0V25" stroke="black" stroke-width="3"/>
<line x1="31.5" x2="31.5" y2="25" stroke="black" stroke-width="3"/>
<line x1="61.5" x2="61.5" y2="25" stroke="black" stroke-width="3"/>
<line x1="121.5" y1="125" x2="121.5" y2="150" stroke="black" stroke-width="3"/>
<path d="M90 125V150" stroke="black" stroke-width="3"/>
<line x1="31.5" y1="125" x2="31.5" y2="150" stroke="black" stroke-width="3"/>
<line x1="61.5" y1="125" x2="61.5" y2="150" stroke="black" stroke-width="3"/>
<line x1="151.5" y1="125" x2="151.5" y2="150" stroke="black" stroke-width="3"/>
<path d="M210.625 55.125H215.625V76.9375C215.708 86.6875 220.562 91.5833 230.188 91.625C237.521 91.625 241.958 88.625 243.5 82.625C243.958 80.7917 244.188 78.7083 244.188 76.375V55.125H249.188V53.5H237V55.125H242V76.75C242 84.8333 239 89.1875 233 89.8125C232.5 89.8542 232 89.875 231.5 89.875C226.417 89.875 223.208 87.7292 221.875 83.4375C221.292 81.5625 221 79.2708 221 76.5625V55.125H225.938V53.5H210.625V55.125ZM287.812 91C287.812 90.0833 287.479 89.5625 286.812 89.4375C286.604 89.3958 286.396 89.375 286.188 89.375H284.062L269.75 53.5H267.438L253.438 89.375H249.5V91H260.625C260.625 90.0833 260.292 89.5625 259.625 89.4375C259.417 89.3958 259.208 89.375 259 89.375H255.938L260.625 77.25H273.688L278.375 89.375H274.312V91H287.812ZM273 75.4375H261.312L267.125 60.3125L273 75.4375Z" fill="#F5FA0E"/>
<path d="M12.5 53.5V55.125H17.5V89.375H12.5V91H29.75C35.375 91 40 89.25 43.625 85.75C47.2083 82.2917 49 77.7917 49 72.25C49 65.0833 46.375 59.8333 41.125 56.5C37.9167 54.5 34.1875 53.5 29.9375 53.5H12.5ZM29.75 55.125C36.3333 55.125 40.4375 58.125 42.0625 64.125C42.6875 66.3333 43 68.9583 43 72C43 82.375 39.4583 88.1042 32.375 89.1875C31.5833 89.3125 30.7708 89.375 29.9375 89.375H22.875V55.125H29.75ZM68.3125 89.4375H63.8125V77C63.8125 73.2083 64.9792 70.1667 67.3125 67.875C68.2292 67 69 66.5417 69.625 66.5C70.3333 66.5 70.9792 67.0208 71.5625 68.0625C72.2292 69.2292 72.8542 69.8958 73.4375 70.0625C73.6875 70.1458 73.9375 70.1875 74.1875 70.1875C75.4375 70.1875 76.2292 69.5833 76.5625 68.375C76.6458 68.125 76.6875 67.875 76.6875 67.625C76.6875 65.75 75.7292 64.6042 73.8125 64.1875C73.3958 64.1042 73 64.0625 72.625 64.0625C70.125 64.0625 67.8958 65.125 65.9375 67.25C65.0208 68.25 64.2917 69.375 63.75 70.625L63.5 64.4375H54.4375V66H59.125V85.6875C59.125 87.6042 58.5833 88.75 57.5 89.125C56.875 89.3333 55.8542 89.4375 54.4375 89.4375V91H69.875C69.875 90.0833 69.5625 89.5833 68.9375 89.5C68.7708 89.4583 68.5625 89.4375 68.3125 89.4375ZM92.5625 65.375C95.4792 65.375 97.4167 66.6042 98.375 69.0625C98.7083 69.8542 98.875 70.7083 98.875 71.625C98.875 73.7083 97.875 74.9792 95.875 75.4375C94.8333 75.6458 93.3542 75.7292 91.4375 75.6875L84.8125 75.5C85.0208 70.7083 86.5833 67.5833 89.5 66.125C90.4583 65.625 91.4792 65.375 92.5625 65.375ZM103.438 85L101.875 84.4375C100.417 87.6042 98.0625 89.3958 94.8125 89.8125C94.3958 89.8542 94 89.875 93.625 89.875C89.25 89.875 86.5 87.2708 85.375 82.0625C85.0417 80.6042 84.8542 79 84.8125 77.25L92.3125 77.375C97.3958 77.4583 100.667 76.9792 102.125 75.9375C103.25 75.1042 103.812 73.9167 103.812 72.375C103.812 69.5417 102.375 67.2917 99.5 65.625C97.4583 64.4167 95.1042 63.8125 92.4375 63.8125C87.2292 63.8125 83.5 65.9792 81.25 70.3125C80.0833 72.5625 79.5 75.1042 79.5 77.9375C79.5 83.1042 81.3542 86.9375 85.0625 89.4375C87.2708 90.8958 89.7917 91.625 92.625 91.625C97.125 91.625 100.438 90 102.562 86.75C102.896 86.1667 103.188 85.5833 103.438 85ZM130.438 91.625C133.646 91.625 135.417 89.6875 135.75 85.8125C135.792 85.5625 135.812 85.3333 135.812 85.125L134.188 85.0625C133.896 88.1042 133.083 89.6458 131.75 89.6875C130.667 89.6042 130.104 88.5208 130.062 86.4375V73.25C130.062 67.2917 127.083 64.1458 121.125 63.8125C120.75 63.8125 120.375 63.8125 120 63.8125C115.333 63.8125 112.208 64.8958 110.625 67.0625C110.125 67.7708 109.875 68.4792 109.875 69.1875C109.875 70.4792 110.479 71.2292 111.688 71.4375C111.896 71.4792 112.104 71.5 112.312 71.5C113.271 71.5 113.979 70.8958 114.438 69.6875C115.021 68.1458 115.417 67.2292 115.625 66.9375C116.417 65.8958 117.646 65.375 119.312 65.375C123.229 65.625 125.25 67.7708 125.375 71.8125V75.75C115.583 75.75 109.979 77.7917 108.562 81.875C108.312 82.6667 108.188 83.5208 108.188 84.4375C108.188 87.6042 109.583 89.7708 112.375 90.9375C113.5 91.3958 114.688 91.625 115.938 91.625C118.979 91.625 121.542 90.5833 123.625 88.5C124.375 87.7083 124.938 86.875 125.312 86C125.812 89.7083 127.521 91.5833 130.438 91.625ZM118 89.125C115.458 89.125 113.896 87.8542 113.312 85.3125C113.188 84.7292 113.125 84.0833 113.125 83.375C113.125 80.5833 114.729 78.8125 117.938 78.0625C119.646 77.6875 122.125 77.4792 125.375 77.4375V82.4375C124.75 85.3125 123.229 87.3333 120.812 88.5C119.854 88.9167 118.917 89.125 118 89.125ZM150.188 89.4375H147.375V75.9375C147.5 72.2708 148.771 69.5417 151.188 67.75C152.312 66.9167 153.438 66.5 154.562 66.5C156.646 66.5 158.083 67.6458 158.875 69.9375C159.208 70.9375 159.375 72.0625 159.375 73.3125V85.6875C159.375 87.6042 158.917 88.75 158 89.125C157.417 89.3333 156.417 89.4375 155 89.4375V91H168.438C168.438 90.0833 168.125 89.5833 167.5 89.5C167.333 89.4583 167.125 89.4375 166.875 89.4375H164.062V73.9375V73.4375C164.729 70.3958 166.208 68.2708 168.5 67.0625C169.375 66.6458 170.208 66.4375 171 66.4375C173.125 66.4375 174.625 67.5417 175.5 69.75C175.917 70.7917 176.125 71.9792 176.125 73.3125V85.6875C176.125 87.6042 175.667 88.75 174.75 89.125C174.167 89.3333 173.167 89.4375 171.75 89.4375V91H185.562C185.562 90.0833 185.25 89.5833 184.625 89.5C184.458 89.4583 184.25 89.4375 184 89.4375H180.812V73.9375C180.812 69.6458 179.417 66.6458 176.625 64.9375C175.375 64.1875 174.021 63.8125 172.562 63.8125C169.396 63.8125 166.854 65.2917 164.938 68.25C164.438 69 164.021 69.7917 163.688 70.625C162.938 67.3333 161.292 65.2083 158.75 64.25C158 63.9583 157.229 63.8125 156.438 63.8125C153.438 63.8125 150.958 65.0833 149 67.625C148.292 68.5417 147.729 69.5625 147.312 70.6875L147.062 64.4375H138V66H142.688V85.6875C142.688 87.6042 142.146 88.75 141.062 89.125C140.438 89.3333 139.417 89.4375 138 89.4375V91H151.75C151.75 90.125 151.438 89.625 150.812 89.5C150.604 89.4583 150.396 89.4375 150.188 89.4375Z" fill="#0702F4"/>
</svg>
